<svg width="149" height="165" viewBox="0 0 149 165" fill="none" xmlns="http://www.w3.org/2000/svg">
<path d="M76.877 39.1453C107.278 39.1453 124.905 42.9355 134.979 51.3816C144.97 59.7578 147.82 72.979 147.82 92.864C147.82 112.671 144.157 130.369 133.562 143.108C123.005 155.804 105.365 163.807 76.877 163.807C48.3891 163.807 30.7491 155.804 20.1914 143.108C9.59725 130.369 5.93361 112.671 5.93359 92.864C5.93359 72.979 8.78377 59.7578 18.7744 51.3816C28.8484 42.9355 46.4764 39.1453 76.877 39.1453Z" fill="url(#paint0_linear_94_223)" stroke="black" stroke-width="2.35953"/>
<path d="M92.6069 154.321C92.6069 150.076 89.3991 158.362 76.8767 158.362C64.3543 158.362 61.1465 150.076 61.1465 154.321C61.1465 158.566 63.6167 160.171 76.8767 160.171C90.1367 160.171 92.6069 158.566 92.6069 154.321Z" fill="#A30000"/>
<path d="M91.5253 44.8742C91.5253 38.017 88.4298 42.6288 76.3457 42.6288C64.2615 42.6288 61.166 38.017 61.166 44.8742C61.166 51.7314 63.5497 54.325 76.3457 54.325C89.1416 54.325 91.5253 51.7314 91.5253 44.8742Z" fill="#A30000"/>
<path d="M76.0566 12.4414C80.2051 12.2093 84.2537 12.6623 86.7021 13.832C87.9195 14.4137 88.5593 15.0839 88.7832 15.7529C88.9959 16.3886 88.9373 17.3437 88.0176 18.7627C83.6785 25.4574 83.6737 31.8953 84.7607 36.6367C85.3023 38.9989 86.1138 40.9414 86.791 42.2959C87.0205 42.7549 87.2353 43.1476 87.4199 43.4678C83.1803 46.423 79.9546 47.6653 76.8379 47.6094C73.71 47.5533 70.4806 46.1893 66.2324 43.4326C66.4872 43.0002 66.8033 42.4411 67.1455 41.7773C67.9882 40.1425 69.0072 37.8525 69.6895 35.2568C71.0481 30.0876 71.1231 23.4198 65.3936 18.5088C64.2173 17.5006 64.1144 16.8419 64.1719 16.5078C64.2424 16.0982 64.6491 15.504 65.7754 14.8506C67.9799 13.5719 71.9111 12.6734 76.0566 12.4414Z" fill="#333333" stroke="black" stroke-width="2.35953"/>
<path d="M53.8961 37.2384C47.6831 33.805 34.5512 22.5776 31.7276 5.13519C38.3114 7.61096 53.5015 13.2231 61.5916 15.8656C69.6818 18.5081 73.1238 28.1709 73.8336 32.6721C73.2199 35.8905 70.4964 42.0167 64.5118 40.7743C58.5272 39.5319 54.941 37.8993 53.8961 37.2384Z" fill="#597E1E" stroke="black" stroke-width="2.35953"/>
<path d="M30.03 79.2267C25.9711 90.6168 30.3566 91.3144 19.4067 109.038C8.45686 126.762 11.961 73.5807 16.0199 62.1906C20.0787 50.8004 56.1164 47.2022 43.5441 54.3072C30.9718 61.4122 34.0889 67.8365 30.03 79.2267Z" fill="white"/>
<defs>
<linearGradient id="paint0_linear_94_223" x1="-11.4075" y1="55.2614" x2="140.407" y2="200.239" gradientUnits="userSpaceOnUse">
<stop stop-color="#FF8383"/>
<stop offset="0.447115" stop-color="#FB0B0B"/>
<stop offset="0.718051" stop-color="#950606"/>
</linearGradient>
</defs>
</svg>
