<svg width="210" height="223" viewBox="0 0 210 223" fill="none" xmlns="http://www.w3.org/2000/svg">
<g clip-path="url(#clip0_94_189)">
<path d="M149.062 93.9889C148.655 93.6921 148.445 93.2672 148.337 92.8736C148.132 92.1282 148.203 91.1568 148.35 90.1811C148.503 89.1669 148.767 87.9818 149.062 86.7325C149.659 84.2002 150.386 81.3702 150.7 78.7796C150.856 77.4898 150.904 76.3001 150.794 75.2709C150.683 74.2383 150.419 73.428 150.001 72.8402C149.128 71.6135 147.467 70.8742 145.327 70.446C143.213 70.0231 140.869 69.9454 138.839 69.8502C137.845 69.8036 136.906 69.752 136.148 69.6434C135.768 69.589 135.401 69.5159 135.078 69.4097C134.768 69.308 134.41 69.1476 134.132 68.8664C133.812 68.5439 133.643 68.106 133.703 67.619C133.756 67.1954 133.97 66.8239 134.204 66.5186C134.674 65.9055 135.504 65.2009 136.675 64.3681L136.796 64.2821L136.936 64.2364C143.627 62.0656 148.338 60.6422 151.932 60.5917C153.77 60.5659 155.366 60.8945 156.812 61.6857C158.249 62.4725 159.468 63.6774 160.615 65.2902L160.679 65.3801L160.721 65.4832C162.227 69.1542 163.959 72.8777 163.477 77.248C162.991 81.6583 160.296 86.5359 153.552 92.7617L153.507 92.8031L153.457 92.8388C152.288 93.6705 151.278 94.2123 150.432 94.3102C149.971 94.3635 149.481 94.2942 149.062 93.9889Z" fill="#494900" stroke="black" stroke-width="1.92475"/>
<path d="M159.59 98.9574C154.283 116.903 156.991 117.03 145.863 130.549C134.734 144.068 118.136 148.254 83.9189 163.122C78.5892 157.793 111.391 152.495 132.04 131.845C152.69 111.196 154.261 93.6277 159.59 98.9574Z" fill="white"/>
<path d="M143.513 88.2863C143.384 87.7993 143.489 87.3372 143.653 86.9634C143.964 86.2558 144.631 85.5462 145.36 84.8814C146.118 84.1905 147.071 83.4372 148.087 82.6532C150.147 81.0639 152.495 79.3247 154.372 77.5119C155.306 76.6092 156.093 75.7158 156.656 74.8473C157.221 73.9759 157.527 73.1803 157.573 72.4604C157.669 70.9581 156.846 69.3373 155.454 67.6555C154.08 65.9947 152.309 64.4566 150.793 63.1032C150.051 62.4406 149.354 61.8083 148.834 61.2461C148.574 60.9645 148.335 60.6765 148.151 60.3903C147.975 60.1162 147.798 59.7661 147.759 59.3721C147.714 58.9204 147.859 58.4741 148.213 58.1338C148.521 57.8379 148.921 57.6849 149.295 57.5953C150.046 57.4152 151.135 57.3917 152.569 57.4833L152.717 57.4927L152.855 57.5455C159.417 60.0781 163.971 61.9429 166.794 64.1697C168.236 65.3078 169.268 66.5692 169.892 68.0948C170.512 69.6118 170.698 71.3151 170.572 73.2903L170.565 73.4004L170.533 73.507C169.387 77.3059 168.385 81.2883 165.256 84.3775C162.099 87.4948 156.932 89.5824 147.772 90.164L147.711 90.1679L147.65 90.164C146.218 90.0725 145.092 89.8564 144.373 89.399C143.982 89.1499 143.646 88.7873 143.513 88.2863Z" fill="#494900" stroke="black" stroke-width="1.92475"/>
<path d="M160.13 75.0749C160.877 74.9969 161.605 75.1202 162.268 75.5197C162.918 75.9113 163.428 76.5218 163.837 77.2853C164.638 78.7832 165.156 81.085 165.486 84.2638L165.518 84.5746L165.361 84.8441C160.719 92.875 157.432 99.3017 154.756 104.561C152.088 109.805 150.003 113.942 147.789 117.322C145.56 120.726 143.183 123.393 139.91 125.718C136.653 128.034 132.547 129.983 126.897 132.011C115.539 136.087 102.552 138.338 86.0149 134.356C69.5096 130.38 49.5418 120.214 24.1651 99.6072L23.8562 99.3555L23.8151 98.9591C23.4752 95.682 23.9416 93.1505 25.3054 91.3586C26.6806 89.552 28.8152 88.6952 31.3571 88.4324C33.8922 88.1704 36.9582 88.483 40.389 89.1352C43.8303 89.7894 47.704 90.7983 51.8722 91.9655C60.2335 94.307 69.7939 97.2877 79.7013 99.4427C89.6023 101.596 99.763 102.904 109.265 101.918C128.24 99.95 141.176 89.1919 149.815 81.9061C151.963 80.0948 153.875 78.4726 155.536 77.2784C157.164 76.1083 158.715 75.2229 160.13 75.0749Z" fill="url(#paint0_linear_94_189)" stroke="black" stroke-width="1.92475"/>
<path d="M148.555 98.7803C133.122 109.366 135.145 111.171 117.983 114.651C100.822 118.13 85.2987 110.916 49.3637 100.889C48.586 93.3921 77.3891 109.957 106.436 106.944C135.483 103.931 147.777 91.2832 148.555 98.7803Z" fill="white"/>
<path d="M145.034 99.493C144.815 99.0391 144.831 98.5655 144.922 98.1674C145.093 97.4138 145.615 96.591 146.205 95.8005C146.819 94.9789 147.612 94.0594 148.462 93.0976C150.185 91.148 152.162 88.9969 153.663 86.8622C154.411 85.7994 155.015 84.7734 155.404 83.8143C155.794 82.8519 155.944 82.0129 155.853 81.2973C155.664 79.8038 154.549 78.3676 152.865 76.9788C151.202 75.6073 149.173 74.4312 147.429 73.3883C146.575 72.8777 145.771 72.3883 145.154 71.9344C144.845 71.707 144.557 71.4693 144.322 71.223C144.097 70.9871 143.858 70.6766 143.745 70.2971C143.616 69.8619 143.674 69.3963 143.957 68.9954C144.203 68.6467 144.568 68.4208 144.918 68.2622C145.622 67.9436 146.686 67.715 148.112 67.5342L148.259 67.5155L148.404 67.5414C155.326 68.7895 160.151 69.7609 163.343 71.4148C164.974 72.2601 166.226 73.304 167.126 74.6844C168.022 76.0571 168.526 77.6946 168.775 79.6581L168.789 79.7675L168.778 79.8783C168.37 83.8251 168.137 87.9252 165.648 91.5494C163.136 95.2068 158.456 98.2323 149.571 100.533L149.512 100.548L149.451 100.556C148.027 100.736 146.881 100.737 146.089 100.423C145.658 100.252 145.259 99.96 145.034 99.493Z" fill="#494900" stroke="black" stroke-width="1.92475"/>
<path d="M158.858 83.3815C159.576 83.164 160.315 83.1475 161.042 83.4147C161.754 83.6765 162.37 84.1797 162.916 84.8524C163.985 86.172 164.928 88.3347 165.852 91.3941L165.942 91.6932L165.839 91.9875C162.797 100.75 160.782 107.682 159.147 113.352C157.517 119.006 156.251 123.461 154.715 127.198C153.168 130.963 151.338 134.03 148.563 136.932C145.801 139.82 142.137 142.51 136.972 145.568C126.588 151.715 114.259 156.377 97.2674 155.589C80.3085 154.801 58.7805 148.587 29.9696 133.142L29.6188 132.953L29.5036 132.572C28.5511 129.418 28.5311 126.843 29.5322 124.826C30.5416 122.793 32.476 121.548 34.9226 120.81C37.3626 120.074 40.4326 119.802 43.9247 119.795C47.4276 119.788 51.4222 120.047 55.7357 120.407C64.3888 121.128 74.34 122.25 84.4761 122.495C94.6056 122.741 104.831 122.107 113.975 119.345C132.238 113.83 142.91 100.823 150.018 92.0373C151.785 89.8531 153.357 87.8991 154.763 86.4128C156.14 84.9564 157.496 83.7942 158.858 83.3815Z" fill="url(#paint1_linear_94_189)" stroke="black" stroke-width="1.92475"/>
<path d="M158.858 83.3813C159.576 83.1637 160.315 83.1473 161.042 83.4144C161.754 83.6762 162.37 84.1795 162.916 84.8521C163.985 86.1718 164.928 88.3344 165.852 91.3938L165.942 91.693L165.839 91.9873C162.797 100.75 160.782 107.682 159.147 113.352C157.517 119.005 156.251 123.461 154.715 127.198C153.168 130.962 151.338 134.03 148.563 136.931C145.801 139.82 142.137 142.51 136.972 145.567C126.588 151.715 114.259 156.377 97.2674 155.588C80.3085 154.801 58.7805 148.587 29.9696 133.142L29.6188 132.953L29.5036 132.571C28.5511 129.417 28.5311 126.843 29.5322 124.826C30.5416 122.792 32.476 121.548 34.9226 120.81C37.3626 120.074 40.4326 119.802 43.9247 119.795C47.4276 119.788 51.4222 120.047 55.7357 120.406C64.3888 121.127 74.34 122.249 84.4761 122.495C94.6056 122.741 104.831 122.107 113.975 119.345C132.238 113.83 142.91 100.823 150.018 92.0371C151.785 89.8529 153.357 87.8989 154.763 86.4125C156.14 84.9562 157.496 83.7939 158.858 83.3813Z" fill="url(#paint2_linear_94_189)" stroke="black" stroke-width="1.92475"/>
<path d="M151.966 108.846C138.809 122.155 141.136 123.546 124.941 130.203C108.745 136.859 92.1388 132.706 54.957 129.644C52.7779 122.428 84.1903 133.257 112.146 124.814C140.102 116.372 149.787 101.63 151.966 108.846Z" fill="white"/>
<path d="M162.672 95.4758C162.278 95.1621 162.087 94.7287 161.995 94.3308C161.822 93.5775 161.934 92.6099 162.122 91.6413C162.318 90.6345 162.632 89.4616 162.98 88.2259C163.684 85.7212 164.529 82.9245 164.953 80.3496C165.164 79.0675 165.262 77.8809 165.195 76.848C165.128 75.8116 164.898 74.9909 164.506 74.3859C163.686 73.1233 162.058 72.3144 159.937 71.7959C157.843 71.2839 155.504 71.107 153.48 70.926C152.489 70.8374 151.553 70.746 150.8 70.6055C150.423 70.535 150.06 70.4465 149.741 70.3267C149.436 70.2119 149.085 70.0365 148.819 69.7438C148.513 69.408 148.363 68.9634 148.444 68.4794C148.514 68.0584 148.744 67.6963 148.991 67.4012C149.486 66.8085 150.345 66.1397 151.55 65.3572L151.675 65.2764L151.817 65.2366C158.593 63.3511 163.36 62.1284 166.954 62.2301C168.791 62.2821 170.371 62.678 171.783 63.5297C173.186 64.3766 174.352 65.6321 175.43 67.2919L175.49 67.3845L175.528 67.4892C176.876 71.2207 178.449 75.0142 177.783 79.3602C177.111 83.746 174.212 88.5051 167.21 94.4398L167.164 94.4793L167.112 94.5128C165.909 95.2943 164.877 95.7929 164.027 95.8549C163.564 95.8886 163.078 95.7986 162.672 95.4758Z" fill="#494900" stroke="black" stroke-width="1.92475"/>
<path d="M168.118 74.9566C168.67 74.4483 169.328 74.1123 170.099 74.037C170.854 73.9632 171.628 74.1485 172.411 74.5172C173.948 75.2406 175.738 76.7782 177.9 79.1316L178.111 79.3618L178.146 79.6715C179.216 88.8856 180.415 96.0039 181.408 101.821C182.398 107.621 183.194 112.184 183.436 116.217C183.68 120.279 183.365 123.837 182.127 127.657C180.896 131.459 178.765 135.474 175.444 140.473C168.765 150.524 159.688 160.083 144.044 166.759C128.429 173.423 106.341 177.186 73.6802 175.802L73.2821 175.785L73.0126 175.491C70.7836 173.065 69.6466 170.756 69.6711 168.504C69.696 166.234 70.897 164.272 72.7795 162.544C74.6569 160.82 77.3033 159.241 80.4451 157.716C83.5965 156.187 87.3066 154.684 91.3474 153.132C99.4533 150.019 108.903 146.703 118.138 142.518C127.367 138.336 136.299 133.319 143.334 126.856C157.382 113.95 161.339 97.5967 163.92 86.5947C164.562 83.8595 165.128 81.4166 165.747 79.4668C166.355 77.5564 167.071 75.9203 168.118 74.9566Z" fill="url(#paint3_linear_94_189)" stroke="black" stroke-width="1.92475"/>
<path d="M172.981 100.885C166.918 118.59 169.619 118.831 157.928 131.867C146.237 144.903 129.476 148.382 94.6608 161.789C89.5615 156.238 122.558 152.334 144.063 132.577C165.569 112.82 167.881 95.3345 172.981 100.885Z" fill="white"/>
</g>
<defs>
<linearGradient id="paint0_linear_94_189" x1="84.8134" y1="56.1848" x2="80.3813" y2="152.17" gradientUnits="userSpaceOnUse">
<stop offset="0.0913461" stop-color="white"/>
<stop offset="0.48545" stop-color="#FFFF00"/>
<stop offset="0.855769" stop-color="#4A4A00"/>
</linearGradient>
<linearGradient id="paint1_linear_94_189" x1="81.3295" y1="79.0503" x2="95.0983" y2="174.146" gradientUnits="userSpaceOnUse">
<stop offset="0.0913461" stop-color="white"/>
<stop offset="0.48545" stop-color="#FFFF00"/>
<stop offset="0.855769" stop-color="#4A4A00"/>
</linearGradient>
<linearGradient id="paint2_linear_94_189" x1="81.3295" y1="79.0501" x2="95.0983" y2="174.146" gradientUnits="userSpaceOnUse">
<stop offset="0.0913461" stop-color="white"/>
<stop offset="0.48545" stop-color="#FFFF00"/>
<stop offset="0.855769" stop-color="#4A4A00"/>
</linearGradient>
<linearGradient id="paint3_linear_94_189" x1="96.4162" y1="104.762" x2="150.159" y2="184.414" gradientUnits="userSpaceOnUse">
<stop offset="0.0913461" stop-color="white"/>
<stop offset="0.48545" stop-color="#FFFF00"/>
<stop offset="0.855769" stop-color="#4A4A00"/>
</linearGradient>
<clipPath id="clip0_94_189">
<rect width="209.83" height="222.145" fill="white"/>
</clipPath>
</defs>
</svg>
