<svg width="158" height="151" viewBox="0 0 158 151" fill="none" xmlns="http://www.w3.org/2000/svg">
<path d="M82.498 1.09277C114.053 1.09286 132.544 9.49035 143.199 22.7969C153.897 36.1568 156.906 54.7106 156.906 75.502C156.906 96.2494 153.057 114.742 141.929 128.08C130.833 141.379 112.317 149.765 82.4922 149.91C52.674 150.055 34.1634 141.669 23.0693 128.301C11.94 114.89 8.08888 96.2502 8.08887 75.502C8.08887 54.7106 11.0988 36.1569 21.7969 22.7969C32.4524 9.49032 50.9431 1.0927 82.498 1.09277Z" fill="url(#paint0_linear_94_247)" stroke="black" stroke-width="2.18635"/>
<path d="M127.245 122.384C127.245 132.555 118.089 140.729 82.4982 140.8C46.9078 140.871 37.751 132.555 37.751 122.384C37.751 112.213 44.8777 127.792 82.4982 127.792C120.119 127.792 127.245 112.213 127.245 122.384Z" fill="url(#paint1_linear_94_247)"/>
<path d="M111.795 12.3841C111.795 7.63763 105.8 3.82298 82.4982 3.78981C59.1963 3.75665 53.2012 7.63763 53.2012 12.3841C53.2012 17.1306 57.8672 9.86035 82.4982 9.86034C107.129 9.86032 111.795 17.1306 111.795 12.3841Z" fill="url(#paint2_linear_94_247)"/>
<path d="M58.0094 25.6846C46.8252 19.2274 34.8391 19.2298 23.11 39.3647C11.3809 59.4997 17.6723 89.596 28.8565 96.0532C40.0407 102.51 25.0986 68.9543 37.414 47.6232C49.7295 26.2921 69.1936 32.1418 58.0094 25.6846Z" fill="white"/>
<defs>
<linearGradient id="paint0_linear_94_247" x1="60.972" y1="-1.01532e-06" x2="104.024" y2="151.006" gradientUnits="userSpaceOnUse">
<stop stop-color="#FFE3A1"/>
<stop offset="0.403846" stop-color="#FFB300"/>
<stop offset="1" stop-color="#996B00"/>
</linearGradient>
<linearGradient id="paint1_linear_94_247" x1="69.7406" y1="56.9035" x2="74.3503" y2="96.1897" gradientUnits="userSpaceOnUse">
<stop stop-color="#FFE3A1"/>
<stop offset="0.403846" stop-color="#FFB300"/>
<stop offset="1" stop-color="#996B00"/>
</linearGradient>
<linearGradient id="paint2_linear_94_247" x1="74.1455" y1="42.9417" x2="75.6891" y2="24.4848" gradientUnits="userSpaceOnUse">
<stop stop-color="#FFE3A1"/>
<stop offset="0.403846" stop-color="#FFB300"/>
<stop offset="1" stop-color="#996B00"/>
</linearGradient>
</defs>
</svg>
