<svg width="210" height="179" viewBox="0 0 210 179" fill="none" xmlns="http://www.w3.org/2000/svg">
<g clip-path="url(#clip0_94_259)">
<g clip-path="url(#clip1_94_259)" filter="url(#filter0_d_94_259)">
<path d="M156.249 22.5581L194.412 18.6414L181.626 54.8116L60.8242 136.159L48.4323 120.409L156.249 22.5581Z" fill="url(#paint0_linear_94_259)"/>
<path d="M166.744 35.897L194.413 18.6415L171.131 41.473L55.836 129.819L53.6936 127.096L166.744 35.897Z" fill="url(#paint1_linear_94_259)"/>
<rect x="50.1907" y="122.644" width="15.0248" height="51.0564" rx="7.51239" transform="rotate(51.8044 50.1907 122.644)" fill="url(#paint2_linear_94_259)"/>
<rect x="40.1262" y="109.852" width="47.5785" height="10.8512" rx="2.78237" transform="rotate(51.8044 40.1262 109.852)" fill="url(#paint3_linear_94_259)"/>
</g>
<g clip-path="url(#clip2_94_259)" filter="url(#filter1_d_94_259)">
<path d="M52.9154 22.5581L14.7522 18.6414L27.5385 54.8116L148.34 136.159L160.732 120.409L52.9154 22.5581Z" fill="url(#paint4_linear_94_259)"/>
<path d="M42.4203 35.897L14.7519 18.6415L38.0331 41.473L153.329 129.819L155.471 127.096L42.4203 35.897Z" fill="url(#paint5_linear_94_259)"/>
<rect width="15.0248" height="51.0564" rx="7.51239" transform="matrix(-0.618347 0.785905 0.785905 0.618347 158.974 122.644)" fill="url(#paint6_linear_94_259)"/>
<rect width="47.5785" height="10.8512" rx="2.78237" transform="matrix(-0.618347 0.785905 0.785905 0.618347 169.038 109.852)" fill="url(#paint7_linear_94_259)"/>
</g>
</g>
<defs>
<filter id="filter0_d_94_259" x="-17.0385" y="-13.209" width="243.24" height="212.89" filterUnits="userSpaceOnUse" color-interpolation-filters="sRGB">
<feFlood flood-opacity="0" result="BackgroundImageFix"/>
<feColorMatrix in="SourceAlpha" type="matrix" values="0 0 0 0 0 0 0 0 0 0 0 0 0 0 0 0 0 0 127 0" result="hardAlpha"/>
<feOffset dy="3.8287"/>
<feGaussianBlur stdDeviation="8.51886"/>
<feColorMatrix type="matrix" values="0 0 0 0 0 0 0 0 0 0 0 0 0 0 0 0 0 0 0.25 0"/>
<feBlend mode="normal" in2="BackgroundImageFix" result="effect1_dropShadow_94_259"/>
<feBlend mode="normal" in="SourceGraphic" in2="effect1_dropShadow_94_259" result="shape"/>
</filter>
<filter id="filter1_d_94_259" x="-17.0375" y="-13.209" width="243.24" height="212.89" filterUnits="userSpaceOnUse" color-interpolation-filters="sRGB">
<feFlood flood-opacity="0" result="BackgroundImageFix"/>
<feColorMatrix in="SourceAlpha" type="matrix" values="0 0 0 0 0 0 0 0 0 0 0 0 0 0 0 0 0 0 127 0" result="hardAlpha"/>
<feOffset dy="3.8287"/>
<feGaussianBlur stdDeviation="8.51886"/>
<feColorMatrix type="matrix" values="0 0 0 0 0 0 0 0 0 0 0 0 0 0 0 0 0 0 0.25 0"/>
<feBlend mode="normal" in2="BackgroundImageFix" result="effect1_dropShadow_94_259"/>
<feBlend mode="normal" in="SourceGraphic" in2="effect1_dropShadow_94_259" result="shape"/>
</filter>
<linearGradient id="paint0_linear_94_259" x1="194.412" y1="18.6414" x2="24.1679" y2="152.678" gradientUnits="userSpaceOnUse">
<stop stop-color="white"/>
<stop offset="0.418269" stop-color="#D9D9D9"/>
<stop offset="1" stop-color="#737373"/>
</linearGradient>
<linearGradient id="paint1_linear_94_259" x1="194.413" y1="18.6415" x2="24.3745" y2="152.939" gradientUnits="userSpaceOnUse">
<stop stop-color="#737373"/>
<stop offset="0.581731" stop-color="#D9D9D9"/>
<stop offset="1" stop-color="white"/>
</linearGradient>
<linearGradient id="paint2_linear_94_259" x1="57.703" y1="122.644" x2="57.703" y2="173.7" gradientUnits="userSpaceOnUse">
<stop offset="0.274038" stop-color="#68351A"/>
<stop offset="1" stop-color="#CE6934"/>
</linearGradient>
<linearGradient id="paint3_linear_94_259" x1="63.9154" y1="109.852" x2="63.9154" y2="120.703" gradientUnits="userSpaceOnUse">
<stop offset="0.274038" stop-color="#68351A"/>
<stop offset="1" stop-color="#CE6934"/>
</linearGradient>
<linearGradient id="paint4_linear_94_259" x1="14.7522" y1="18.6414" x2="184.997" y2="152.678" gradientUnits="userSpaceOnUse">
<stop stop-color="white"/>
<stop offset="0.418269" stop-color="#D9D9D9"/>
<stop offset="1" stop-color="#737373"/>
</linearGradient>
<linearGradient id="paint5_linear_94_259" x1="14.7519" y1="18.6415" x2="184.79" y2="152.939" gradientUnits="userSpaceOnUse">
<stop stop-color="#737373"/>
<stop offset="0.581731" stop-color="#D9D9D9"/>
<stop offset="1" stop-color="white"/>
</linearGradient>
<linearGradient id="paint6_linear_94_259" x1="7.51239" y1="0" x2="7.51239" y2="51.0564" gradientUnits="userSpaceOnUse">
<stop offset="0.274038" stop-color="#68351A"/>
<stop offset="1" stop-color="#CE6934"/>
</linearGradient>
<linearGradient id="paint7_linear_94_259" x1="23.7892" y1="0" x2="23.7892" y2="10.8512" gradientUnits="userSpaceOnUse">
<stop offset="0.274038" stop-color="#68351A"/>
<stop offset="1" stop-color="#CE6934"/>
</linearGradient>
<clipPath id="clip0_94_259">
<rect width="209.165" height="178.815" fill="white" transform="translate(209.165 178.815) rotate(180)"/>
</clipPath>
<clipPath id="clip1_94_259">
<rect width="47.5785" height="228.711" fill="white" transform="translate(179.744) rotate(51.8044)"/>
</clipPath>
<clipPath id="clip2_94_259">
<rect width="47.5785" height="228.711" fill="white" transform="matrix(-0.618347 0.785905 0.785905 0.618347 29.4201 0)"/>
</clipPath>
</defs>
</svg>
